<svg xmlns="http://www.w3.org/2000/svg" viewBox="0 0 200 200" width="100%" height="100%">
  <circle cx="100" cy="90" r="85" fill="#F0F4FF" />
  <g transform="translate(100,95)">
    <ellipse cx="0" cy="0" rx="55" ry="40" fill="#F5F5F5" stroke="#C0C0C0" stroke-width="2"/>
    <path d="M-55 -30 Q-45 -50 -25 -55 Q-10 -58 0 -53" fill="#F5F5F5" stroke="#C0C0C0" stroke-width="1.5"/>
    <ellipse cx="0" cy="0" rx="40" ry="28" fill="#6B4226" stroke="#4A2E1A" stroke-width="1.5"/>
    <ellipse cx="0" cy="0" rx="18" ry="18" fill="#1A1A2E"/>
    <circle cx="0" cy="0" r="8" fill="#fff" opacity="0.5"/>
    <circle cx="-5" cy="-5" r="4" fill="#fff" opacity="0.3"/>
    <circle cx="-18" cy="-12" r="2" fill="#fff" opacity="0.5"/>
    <circle cx="12" cy="-10" r="2" fill="#fff" opacity="0.5"/>
    <path d="M43 -27 Q52 -25 55 -17" fill="none" stroke="#C0C0C0" stroke-width="1.5" stroke-linecap="round"/>
    <path d="M48 -20 Q56 -19 58 -11" fill="none" stroke="#C0C0C0" stroke-width="1.5" stroke-linecap="round"/>
    <path d="M-43 -27 Q-52 -25 -55 -17" fill="none" stroke="#C0C0C0" stroke-width="1.5" stroke-linecap="round"/>
    <path d="M-48 -20 Q-56 -19 -58 -11" fill="none" stroke="#C0C0C0" stroke-width="1.5" stroke-linecap="round"/>
    <path d="M-40 -15 Q-47 -10 -48 -5" fill="none" stroke="#C0C0C0" stroke-width="1.5" stroke-linecap="round"/>
    <path d="M40 -15 Q47 -10 48 -5" fill="none" stroke="#C0C0C0" stroke-width="1.5" stroke-linecap="round"/>
    <path d="M0 -53 Q5 -57 15 -55 Q25 -53 30 -47" fill="none" stroke="#C0C0C0" stroke-width="1.5"/>
    <path d="M0 -53 Q-5 -57 -15 -55 Q-25 -53 -30 -47" fill="none" stroke="#C0C0C0" stroke-width="1.5"/>
    <circle cx="-28" cy="15" r="2" fill="#C0C0C0" opacity="0.3"/>
    <circle cx="28" cy="15" r="2" fill="#C0C0C0" opacity="0.3"/>
    <circle cx="-35" cy="5" r="1.5" fill="#C0C0C0" opacity="0.3"/>
    <circle cx="35" cy="5" r="1.5" fill="#C0C0C0" opacity="0.3"/>
  </g>
  <text x="100" y="178" text-anchor="middle" font-family="'Nunito', Arial, sans-serif" font-size="26" fill="#1E293B" font-weight="900">عَيْن</text>
</svg>