<svg xmlns="http://www.w3.org/2000/svg" viewBox="0 0 200 200" width="100%" height="100%">
  <circle cx="100" cy="90" r="85" fill="#E6F4EA" />
  <g transform="rotate(15, 100, 90)">
    <path d="M72 50 C62 50,57 70,57 100 C57 140,77 155,100 155 C123 155,143 140,143 100 C143 70,128 50,118 50 Z" fill="#FAD6B1" stroke="#E8C3A0" stroke-width="1.5"/>
    <path d="M72 50 C90 38,110 38,118 50 Z" fill="#FAD6B1" stroke="#E8C3A0" stroke-width="1.5"/>
    <circle cx="67" cy="35" r="15" fill="#FAD6B1" stroke="#E8C3A0" stroke-width="1.5"/>
    <circle cx="95" cy="26" r="12" fill="#FAD6B1" stroke="#E8C3A0" stroke-width="1.5"/>
    <circle cx="118" cy="30" r="10" fill="#FAD6B1" stroke="#E8C3A0" stroke-width="1.5"/>
    <circle cx="135" cy="40" r="8" fill="#FAD6B1" stroke="#E8C3A0" stroke-width="1.5"/>
    <circle cx="145" cy="55" r="7" fill="#FAD6B1" stroke="#E8C3A0" stroke-width="1.5"/>
    <path d="M128 70 C113 80,113 120,128 130" fill="none" stroke="#E8C3A0" stroke-width="3" stroke-linecap="round"/>
    <ellipse cx="100" cy="120" rx="15" ry="10" fill="#E8C3A0" opacity="0.3"/>
    <ellipse cx="90" cy="75" rx="18" ry="12" fill="#E8C3A0" opacity="0.3"/>
    <circle cx="67" cy="92" r="3" fill="#E8C3A0" opacity="0.4"/>
    <circle cx="133" cy="92" r="3" fill="#E8C3A0" opacity="0.4"/>
  </g>
  <text x="100" y="185" text-anchor="middle" font-family="'Nunito', Arial, sans-serif" font-size="28" fill="#1E293B" font-weight="900">رِجْل</text>
</svg>