<svg xmlns="http://www.w3.org/2000/svg" viewBox="0 0 200 200" width="100%" height="100%">
  <circle cx="100" cy="90" r="85" fill="#FFF4E6" />
  <g transform="translate(100,95)">
    <path d="M-28 50 L28 50 L33 10 L-33 10 Z" fill="#FAD6B1" stroke="#E8C3A0" stroke-width="1.5"/>
    <path d="M-40 -30 C-40 10,-30 30,-5 30 C20 30,35 10,35 -30 C35 -40,-40 -40,-40 -30" fill="#FAD6B1" stroke="#E8C3A0" stroke-width="1.5"/>
    <path d="M-45 -10 C-60 -15,-70 -25,-55 -45 C-45 -55,-35 -35,-30 -20" fill="#FAD6B1" stroke="#E8C3A0" stroke-width="2" stroke-linecap="round"/>
    <path d="M-35 -25 L-40 -65 C-42 -75,-28 -75,-25 -65 L-20 -35" fill="#FAD6B1" stroke="#E8C3A0" stroke-width="2" stroke-linecap="round"/>
    <path d="M-18 -35 L-20 -75 C-22 -85,-8 -85,-5 -75 L-3 -35" fill="#FAD6B1" stroke="#E8C3A0" stroke-width="2" stroke-linecap="round"/>
    <path d="M0 -35 L2 -70 C4 -80,18 -80,15 -70 L10 -35" fill="#FAD6B1" stroke="#E8C3A0" stroke-width="2" stroke-linecap="round"/>
    <path d="M15 -30 L22 -55 C26 -62,38 -62,35 -55 L25 -25" fill="#FAD6B1" stroke="#E8C3A0" stroke-width="2" stroke-linecap="round"/>
    <path d="M-40 -30 Q-5 -45 35 -30 L35 -10 Q-5 40 -40 -10 Z" fill="#FAD6B1" stroke="#E8C3A0" stroke-width="1.5"/>
    <path d="M-25 -10 Q-10 5 10 -5" fill="none" stroke="#E8C3A0" stroke-width="2.5" stroke-linecap="round"/>
    <path d="M-30 5 Q-10 20 20 10" fill="none" stroke="#E8C3A0" stroke-width="2.5" stroke-linecap="round"/>
    <path d="M-10 -25 Q-5 -10 -10 10" fill="none" stroke="#E8C3A0" stroke-width="2" stroke-linecap="round"/>
  </g>
  <text x="100" y="185" text-anchor="middle" font-family="'Nunito', Arial, sans-serif" font-size="28" fill="#1E293B" font-weight="900">يَد</text>
</svg>