<svg xmlns="http://www.w3.org/2000/svg" viewBox="0 0 200 200" width="100%" height="100%">
  <circle cx="100" cy="90" r="85" fill="#FFF0F0" />
  <g transform="translate(100,90)">
    <ellipse cx="0" cy="-25" rx="14" ry="10" fill="#F0B090" stroke="#D4A574" stroke-width="1.5"/>
    <ellipse cx="0" cy="-23" rx="7" ry="5" fill="#D4785A"/>
    <ellipse cx="0" cy="5" rx="58" ry="32" fill="#F5C6A0" stroke="#D4A574" stroke-width="2"/>
    <path d="M-52 -2 Q-52 -20 -32 -27 Q-17 -32 0 -30" fill="#F0B090" stroke="#D4A574" stroke-width="1.5"/>
    <path d="M52 -2 Q52 -20 32 -27 Q17 -32 0 -30" fill="#F0B090" stroke="#D4A574" stroke-width="1.5"/>
    <path d="M-48 5 Q-25 28 25 28 Q48 5 48 5" fill="#F5C6A0" stroke="#D4A574" stroke-width="1.5"/>
    <path d="M-42 8 Q-20 22 20 22 Q42 8 42 8" fill="#D4785A" opacity="0.3"/>
    <rect x="-14" y="14" width="3" height="9" rx="1.5" fill="#fff" stroke="#D4A574" stroke-width="0.5"/>
    <rect x="-8" y="16" width="3" height="9" rx="1.5" fill="#fff" stroke="#D4A574" stroke-width="0.5"/>
    <rect x="-2" y="17" width="3" height="9" rx="1.5" fill="#fff" stroke="#D4A574" stroke-width="0.5"/>
    <rect x="4" y="16" width="3" height="9" rx="1.5" fill="#fff" stroke="#D4A574" stroke-width="0.5"/>
    <rect x="10" y="14" width="3" height="9" rx="1.5" fill="#fff" stroke="#D4A574" stroke-width="0.5"/>
    <path d="M-22 -3 Q-15 -6 0 -6 Q15 -6 22 -3" fill="none" stroke="#D4785A" stroke-width="1.5" stroke-linecap="round"/>
    <path d="M-5 -18 Q0 -22 5 -18" fill="none" stroke="#D4785A" stroke-width="1" stroke-linecap="round"/>
  </g>
  <text x="100" y="178" text-anchor="middle" font-family="'Nunito', Arial, sans-serif" font-size="26" fill="#1E293B" font-weight="900">فَم</text>
</svg>