<svg xmlns="http://www.w3.org/2000/svg" viewBox="0 0 200 200" width="100%" height="100%">
  <circle cx="100" cy="90" r="85" fill="#FFF0E0" />
  <circle cx="100" cy="78" r="55" fill="#F5C6A0" stroke="#D4A574" stroke-width="2"/>
  <ellipse cx="100" cy="95" rx="24" ry="7" fill="#F5C6A0" stroke="#D4A574" stroke-width="1.5"/>
  <rect x="88" y="101" width="24" height="3" rx="1.5" fill="#D4785A"/>
  <line x1="96" y1="104" x2="96" y2="110" stroke="#D4785A" stroke-width="1.5"/>
  <line x1="104" y1="104" x2="104" y2="110" stroke="#D4785A" stroke-width="1.5"/>
  <circle cx="82" cy="68" r="7" fill="#fff"/>
  <circle cx="118" cy="68" r="7" fill="#fff"/>
  <circle cx="82" cy="68" r="5" fill="#4A7C59"/>
  <circle cx="118" cy="68" r="5" fill="#4A7C59"/>
  <circle cx="83" cy="67" r="1.5" fill="#fff"/>
  <circle cx="119" cy="67" r="1.5" fill="#fff"/>
  <ellipse cx="82" cy="76" rx="2.5" ry="1" fill="#D4785A"/>
  <ellipse cx="118" cy="76" rx="2.5" ry="1" fill="#D4785A"/>
  <path d="M55 48 Q65 38 78 35 Q90 32 100 36" fill="none" stroke="#D4A574" stroke-width="2" stroke-linecap="round"/>
  <path d="M145 48 Q135 38 122 35 Q110 32 100 36" fill="none" stroke="#D4A574" stroke-width="2" stroke-linecap="round"/>
  <rect x="62" y="50" width="10" height="5" rx="2.5" fill="#D4A574"/>
  <rect x="128" y="50" width="10" height="5" rx="2.5" fill="#D4A574"/>
  <circle cx="67" cy="57" r="3" fill="#E8B88A"/>
  <circle cx="133" cy="57" r="3" fill="#E8B88A"/>
  <path d="M93 82 Q100 88 107 82" fill="none" stroke="#D4785A" stroke-width="1.5" stroke-linecap="round"/>
  <text x="100" y="170" text-anchor="middle" font-family="'Nunito', Arial, sans-serif" font-size="26" fill="#1E293B" font-weight="900">رَأْس</text>
</svg>