<svg xmlns="http://www.w3.org/2000/svg" viewBox="0 0 200 200" width="100%" height="100%">
  <defs>
    <radialGradient id="candyLeft" cx="0.3" cy="0.3" r="0.7">
      <stop offset="0%" stop-color="#ff4081"/>
      <stop offset="100%" stop-color="#d81b60"/>
    </radialGradient>
    <radialGradient id="candyRight" cx="0.7" cy="0.3" r="0.7">
      <stop offset="0%" stop-color="#f48fb1"/>
      <stop offset="100%" stop-color="#e91e63"/>
    </radialGradient>
  </defs>
  <rect x="0" y="0" width="200" height="200" rx="30" fill="#fce4ec"/>
  <ellipse cx="100" cy="75" rx="40" ry="45" fill="url(#candyLeft)"/>
  <path d="M80 35 Q60 45 65 75 Q70 105 90 115" fill="none" stroke="#c2185b" stroke-width="3" opacity="0.4"/>
  <path d="M120 35 Q140 45 135 75 Q130 105 110 115" fill="none" stroke="#c2185b" stroke-width="3" opacity="0.4"/>
  <path d="M90 40 Q100 35 110 40" fill="none" stroke="#f48fb1" stroke-width="4" stroke-linecap="round"/>
  <path d="M85 60 Q100 50 115 60" fill="none" stroke="#f48fb1" stroke-width="4" stroke-linecap="round"/>
  <path d="M85 80 Q100 70 115 80" fill="none" stroke="#f48fb1" stroke-width="4" stroke-linecap="round"/>
  <path d="M90 100 Q100 90 110 100" fill="none" stroke="#f48fb1" stroke-width="4" stroke-linecap="round"/>
  <rect x="94" y="118" width="12" height="50" rx="4" fill="#5d4037"/>
  <ellipse cx="100" cy="118" rx="8" ry="3" fill="#4e342e"/>
  <path d="M62 75 Q55 80 58 88 Q64 78 62 75Z" fill="#c2185b" opacity="0.6"/>
  <path d="M138 75 Q145 80 142 88 Q136 78 138 75Z" fill="#c2185b" opacity="0.6"/>
  <text x="100" y="184" text-anchor="middle" font-family="Arial, sans-serif" font-size="14" font-weight="bold" fill="#880e4f">حَلْوَى</text>
</svg>
