<svg xmlns="http://www.w3.org/2000/svg" viewBox="0 0 200 200" width="100%" height="100%">
  <defs>
    <linearGradient id="plateGrad" x1="0" y1="0" x2="0" y2="1">
      <stop offset="0%" stop-color="#e0e0e0"/>
      <stop offset="100%" stop-color="#bdbdbd"/>
    </linearGradient>
    <linearGradient id="cakeGrad" x1="0" y1="0" x2="0" y2="1">
      <stop offset="0%" stop-color="#fff9c4"/>
      <stop offset="100%" stop-color="#ffe082"/>
    </linearGradient>
    <linearGradient id="tierGrad" x1="0" y1="0" x2="0" y2="1">
      <stop offset="0%" stop-color="#fff3e0"/>
      <stop offset="100%" stop-color="#ffcc80"/>
    </linearGradient>
    <linearGradient id="creamGrad" x1="0" y1="0" x2="0" y2="1">
      <stop offset="0%" stop-color="#ffffff"/>
      <stop offset="100%" stop-color="#f5f5f5"/>
    </linearGradient>
    <radialGradient id="cherryGrad" cx="0.4" cy="0.35" r="0.6">
      <stop offset="0%" stop-color="#ff5252"/>
      <stop offset="100%" stop-color="#c62828"/>
    </radialGradient>
  </defs>

  <rect x="0" y="0" width="200" height="200" rx="30" fill="#e8f5e9"/>

  <ellipse cx="100" cy="170" rx="68" ry="14" fill="url(#plateGrad)"/>
  <ellipse cx="100" cy="168" rx="60" ry="10" fill="#eeeeee"/>

  <rect x="60" y="115" width="80" height="50" rx="8" fill="url(#cakeGrad)"/>
  <rect x="60" y="115" width="80" height="12" rx="4" fill="url(#creamGrad)" opacity="0.7"/>

  <rect x="72" y="72" width="56" height="45" rx="6" fill="url(#tierGrad)"/>
  <rect x="72" y="72" width="56" height="10" rx="4" fill="url(#creamGrad)" opacity="0.7"/>

  <ellipse cx="100" cy="72" rx="28" ry="6" fill="url(#creamGrad)"/>
  <ellipse cx="100" cy="115" rx="40" ry="6" fill="url(#creamGrad)"/>

  <circle cx="86" cy="80" r="3" fill="#e91e63"/>
  <circle cx="105" cy="78" r="3" fill="#2196f3"/>
  <circle cx="98" cy="86" r="3" fill="#ffeb3b"/>
  <circle cx="112" cy="83" r="3" fill="#e91e63"/>
  <circle cx="80" cy="87" r="2.5" fill="#2196f3"/>
  <circle cx="118" cy="77" r="2.5" fill="#ffeb3b"/>

  <circle cx="80" cy="124" r="3" fill="#2196f3"/>
  <circle cx="95" cy="122" r="3" fill="#e91e63"/>
  <circle cx="110" cy="125" r="3" fill="#ffeb3b"/>
  <circle cx="120" cy="121" r="3" fill="#e91e63"/>
  <circle cx="88" cy="130" r="2.5" fill="#ffeb3b"/>
  <circle cx="105" cy="132" r="2.5" fill="#2196f3"/>

  <rect x="72" y="90" width="56" height="25" rx="5" fill="#ffe082" opacity="0.4"/>

  <circle cx="100" cy="64" r="7" fill="url(#cherryGrad)"/>
  <ellipse cx="98" cy="61" rx="3" ry="1.5" fill="#ff8a80" opacity="0.5"/>
  <path d="M100 57 Q102 48 106 42" stroke="#4caf50" stroke-width="2" fill="none" stroke-linecap="round"/>
  <ellipse cx="107" cy="40" rx="4" ry="2.5" fill="#66bb6a"/>

  <text x="100" y="190" text-anchor="middle" font-family="Arial, sans-serif" font-size="16" font-weight="bold" fill="#33691e">كَعْكَة</text>
</svg>