<svg xmlns="http://www.w3.org/2000/svg" viewBox="0 0 200 200" width="100%" height="100%">
  <defs>
    <linearGradient id="glass" x1="0" y1="0" x2="0" y2="1">
      <stop offset="0%" stop-color="#fff8e1"/>
      <stop offset="100%" stop-color="#ffcc02"/>
    </linearGradient>
    <linearGradient id="liquid" x1="0" y1="0" x2="0" y2="1">
      <stop offset="0%" stop-color="#ffb300"/>
      <stop offset="100%" stop-color="#ff8f00"/>
    </linearGradient>
  </defs>
  <rect x="0" y="0" width="200" height="200" rx="30" fill="#fff8e1"/>
  <path d="M60 160 L65 50 Q65 40 75 40 L125 40 Q135 40 135 50 L140 160 Q140 170 130 170 L70 170 Q60 170 60 160Z" fill="url(#glass)" stroke="#bf8f00" stroke-width="2.5" rx="8"/>
  <rect x="60" y="95" width="80" height="65" rx="10" fill="url(#liquid)" opacity="0.9"/>
  <ellipse cx="100" cy="95" rx="40" ry="8" fill="#ff8f00" opacity="0.5"/>
  <line x1="95" y1="48" x2="95" y2="70" stroke="#ff6f00" stroke-width="3" stroke-linecap="round"/>
  <line x1="105" y1="48" x2="105" y2="70" stroke="#ff8f00" stroke-width="2" stroke-linecap="round"/>
  <circle cx="100" cy="42" r="10" fill="#ff6f00" opacity="0.8"/>
  <circle cx="100" cy="42" r="4" fill="#ffe082"/>
  <rect x="62" y="140" width="76" height="18" rx="6" fill="#c79200"/>
  <text x="100" y="182" text-anchor="middle" font-family="Arial, sans-serif" font-size="14" font-weight="bold" fill="#6d4c00">عَصِير</text>
</svg>
